<?xml version="1.0" encoding="utf-8"?>
<!-- Generator: Adobe Illustrator 24.0.1, SVG Export Plug-In . SVG Version: 6.00 Build 0)  -->
<svg version="1.1" id="Layer_1" xmlns="http://www.w3.org/2000/svg" xmlns:xlink="http://www.w3.org/1999/xlink" x="0px" y="0px"
	 viewBox="0 0 700.8 102.7" style="enable-background:new 0 0 700.8 102.7;" xml:space="preserve">
<style type="text/css">
	.st0{fill:#8B1B3E;}
	.st1{fill:#1878B9;}
</style>
<g>
	<g>
		<polygon class="st0" points="1.6,98.8 75,1.1 102.3,1.1 108.4,48 82.8,48 80.6,28 63.7,52.4 117.6,52.4 116.2,42.6 141.4,63.2 
			120.8,80.2 120.2,73.4 48.7,73.4 31.1,98.8 		"/>
		<polygon class="st0" points="85.8,77.6 112.8,77.6 115.4,98.8 88.2,98.8 		"/>
		<polygon class="st1" points="111.4,1.1 138.6,1.1 145.4,60.2 115.4,35.2 		"/>
		<polygon class="st1" points="121.5,85.6 145.4,66.4 179.1,1.1 204.2,1.1 211.7,64.4 244.6,1.1 272,1.1 220.2,98.8 191.2,98.8 
			184,39.3 152.7,98.8 123.4,98.8 		"/>
		<path class="st1" d="M310.3,58.6c-3.4,9.8-12.7,16.8-23.7,16.8c-13.8,0-25.1-11.2-25.1-25.1s11.2-25.1,25.1-25.1
			c11.2,0,20.6,7.3,23.9,17.4L331.1,28c-8.4-16.6-25.5-28-45.4-28c-2.4,0-4.7,0.2-7,0.5l-38,73.8c8.5,16.2,25.5,27.3,45,27.3
			c20,0,37.3-11.6,45.6-28.4L310.3,58.6z"/>
	</g>
	<g>
		<path d="M433.5,64.1c2.5-1.9,2.6-1.9,1.4-4.8c-0.6-1.6-0.9-3.8-2.1-4.6c-1.2-0.8-3.4-0.3-5.1-0.3c-4.1,0-4.1,0-5.5,3.8
			c0,0.1-0.1,0.2-0.1,0.3c-1.3,3.5-1.3,3.5,1.4,6c-3.2,0-6.5-0.3-9.7,0.1c-4.9,0.7-8.3-1.3-10.9-5.2c-1.9-2.8-4-5.5-6-8.2
			c0,3.5-0.2,6.9,0.1,10.4c0.1,0.9,1.5,1.7,2.4,2.7c-7.5,0-15.1,0-22.7,0c0.1-0.2,0.1-0.3,0.2-0.4c2.3-1.6,2.3-1.6,1.3-4.3
			c-0.7-1.7-1-4-2.3-4.9c-1.2-0.9-3.5-0.3-5.3-0.3c-3.9,0-3.9,0-5.3,3.6c-0.1,0.3-0.2,0.5-0.3,0.8c-1.2,3.3-1.2,3.3,1.7,5.3
			c-3.7,0-7.2,0-11.2,0c4.5-2.2,5.1-6.4,6.6-10c1.9-4.4,3.6-8.9,5.4-13.4c1-2.6,1-2.6-1.4-3.8c-0.2-0.1-0.5-0.3-1.1-0.7
			c3.2,0,6-0.1,8.8,0.1c0.4,0,1,0.8,1.2,1.3c2.9,7,5.6,14.1,8.6,21.1c0.6,1.5,1.7,3,3,4.1c1.9,1.7,4.4,0.4,4.7-2.2
			c0.1-0.7,0-1.5,0-2.3c0-5.3,0-10.7,0-16c0-4.6-0.2-4-3.6-6.1c1.4,0,2.3,0,3.2,0c3.7,0.1,7.5-0.1,11.1,0.3c4,0.4,6.4,2.9,6.9,6.3
			c0.4,2.9-1.5,5.9-4.8,7.6c-0.4,0.2-0.7,0.3-1.3,0.6c3.2,4.1,6.1,8.3,10.3,11.3c0.8,0.6,1.5,0.6,2.1-0.2c0.6-0.9,1.3-1.8,1.7-2.8
			c2.6-6.4,5.1-12.8,7.8-19.2c0.6-1.5,0.4-2.4-1.2-3c-0.4-0.1-0.8-0.4-1.6-0.9c3.2,0,5.9-0.1,8.6,0.1c0.5,0,1.2,0.8,1.4,1.4
			c2.7,6.7,5.4,13.4,8.1,20.1c0.8,2,1.7,4.1,3.7,5.3c1.7,1,3.8,0.1,4.3-1.8c0.1-0.5,0.2-1,0.2-1.6c0-6.3,0-12.5,0-18.8
			c0-2.4-1.2-3.6-3.2-4.6c0.4,0,0.8-0.1,1.2-0.1c4.5,0.1,9.1,0,13.6,0.4c4.4,0.4,7,4.4,5.6,8.2c-0.4,1.1-1.4,2.1-2.2,3.2
			c0,0,0.2,0.2,0.5,0.3c5.9,2.5,6,10,1.1,13.6c-2.1,1.5-4.5,2.2-7,2.2c-7.9,0-15.8,0-23.7,0C434.1,64.3,433.9,64.2,433.5,64.1z
			 M453.5,60.3c2.2-0.2,4.1-0.1,5.9-0.5c2.1-0.4,3.1-1.9,3.2-3.8c0.1-2-0.9-3.8-2.8-4.3c-1.7-0.5-3.6-0.5-5.5-0.7
			c-0.3,0-0.8,0.6-0.8,1C453.5,54.6,453.5,57.2,453.5,60.3z M396.6,49.5c1.7-0.7,3.2-1,4.5-1.8c2-1.1,2.6-3.5,1.7-5.4
			c-0.8-1.7-3.6-2.7-5.5-1.9c-0.3,0.1-0.7,0.6-0.7,1C396.6,43.9,396.6,46.4,396.6,49.5z M453.5,47.1c0.8,0,1.4,0,2,0
			c2.9-0.2,5-1.8,4.8-3.8c-0.2-2-2.3-3.3-5.3-3.1c-0.2,0-0.4,0-0.5,0.1c-0.4,0.3-1,0.7-1,1.1C453.4,43.2,453.5,45.1,453.5,47.1z
			 M431.5,50.4c-1.1-2.7-2-5.2-3.2-8.1c-1.2,3-2.1,5.5-3.2,8.1C427.4,50.4,429.3,50.4,431.5,50.4z M374.5,50.4
			c-1.1-2.8-2.1-5.2-3.2-8.1c-1.2,3-2.1,5.5-3.2,8.1C370.3,50.4,372.3,50.4,374.5,50.4z"/>
		<path d="M471.2,36.4c3.8,0,7.6,0,11.5,0c0,0.1,0,0.3,0,0.3c-2.8,1-3.2,3.1-3.1,5.7c0.1,5.6,0,11.3,0.1,16.9c0,0.9,0.1,1.8,0.4,2.6
			c0.7,1.8,2.8,2.5,4.3,1.3c1-0.9,2.1-1.9,2.6-3.1c2.8-6.7,5.5-13.4,8.2-20.1c0.5-1.2,0.2-2.1-1.1-2.6c-0.4-0.2-0.8-0.4-1.2-1
			c2.8,0,5.7,0,8.5,0.1c0.3,0,0.7,0.8,0.9,1.3c2.8,6.9,5.5,13.8,8.4,20.6c0.7,1.7,1.8,3.3,3.1,4.5c1.6,1.5,3.8,0.8,4.6-1.3
			c0.3-0.7,0.3-1.6,0.3-2.4c0-5.1,0-10.1,0-15.2c0-2.9,0.3-5.9-3.4-7.3c0.1-0.1,0.2-0.2,0.3-0.3c2.4,0,4.8,0,7.2,0
			c0.4,0,0.9,0.6,1.2,1c4.6,5.8,9.2,11.7,13.8,17.5c0.1,0.2,0.3,0.3,0.6,0.5c0-5.2,0.2-10.1-0.1-15.1c-0.1-1.4-1.7-2.7-2.5-3.9
			c3.1,0,6.6,0,10.1,0c0,0.1,0,0.2,0,0.3c-2.7,1.3-3.1,3.5-3.1,6.2c0.1,7.6,0,15.2,0,23c-2.8-0.7-4.9-2.3-6.6-4.4
			c-3.9-5-7.8-9.9-11.8-14.9c-0.4-0.5-0.8-0.9-1.5-1.3c0,2.8,0,5.6,0,8.4c0,1.3,0.1,2.6,0,3.8c-0.2,2.7,0,5.1,2.8,6.7
			c-7.2,0-14.5,0-21.9,0c2.5-2.2,2.5-2.2,1.3-5.4c-1.7-4.5-1.7-4.5-6.6-4.5c-4.5,0-4.5,0-6.1,4.2c-0.1,0.2-0.1,0.3-0.2,0.5
			c-1.2,3.2-1.2,3.2,2,5.2c-7.8,0-15.2,0-22.9,0c0.3-0.3,0.5-0.6,0.8-0.7c1.5-0.6,2.1-1.8,2.1-3.3c0-6.6,0-13.1,0-19.7
			C474.3,38.3,472.8,37.4,471.2,36.4z M498.5,42.3c-1.1,2.8-2.1,5.3-3.1,8c2.3,0,4.2,0,6.3,0c-0.9-2.4-1.7-4.5-2.6-6.6
			C499,43.3,498.8,43,498.5,42.3z"/>
		<path d="M588.9,65.7c-3.8-1.6-5.9-4.4-6.8-8.2c-0.8-3.2-2-6.3-3-9.4c-0.1-0.3-0.2-0.6-0.5-1.3c-2.1,6.6-4,12.8-5.9,19
			c-3.8-1.6-5.8-4.4-6.9-8.3c-1.2-4.7-2.9-9.3-4.4-13.9c-0.9-2.6-1.6-5.3-4.7-7.1c3.2,0,5.8,0,8,0c2.1,6.7,4.2,13.3,6.4,20.3
			c0.3-0.8,0.5-1.1,0.6-1.5c1.3-4,2.5-8,3.8-11.9c0.8-2.6,1.8-5.3-1.7-6.9c2.6,0,5.2,0,7.6,0c0.2,1.4,0.3,2.7,0.7,4
			c1.5,4.8,3,9.5,4.5,14.2c0.2,0.5,0.4,1,0.7,2c0.8-2.5,1.4-4.5,2.1-6.5c0.9-2.7,1.7-5.4,2.5-8.1c0.9-3.2,0.6-3.7-2.4-4.7
			c-0.6-0.2-1.1-0.4-2.2-0.8c3.8,0,7,0,10.5,0C594.9,46.3,591.9,56,588.9,65.7z"/>
		<path d="M622.5,64.2c-3.3,0-6.5,0-9.8,0c3.3-1.6,2.9-4.6,2.9-7.4c0-4.5,0-9.1,0-13.6c0-4.1,0-4.2-3.5-6.8c2.9,0,5.5,0,8,0
			c0.2,0,0.5,0.4,0.7,0.7c4.7,6,9.4,12,14,18c0.1,0.1,0.2,0.1,0.5,0.3c0-1.7,0-3.3,0-4.9c0-2.6-0.1-5.1,0-7.7
			c0.2-2.7-0.5-4.9-3.1-6.3c3.5,0,7,0,10.5,0c0,0,0,0.2,0,0.2c-3,1.3-3.3,3.8-3.2,6.7c0.1,7.4,0,14.8,0,22.5
			c-2.4-0.4-4.2-1.7-5.6-3.4c-2.3-2.7-4.5-5.5-6.7-8.3c-2.4-3-4.7-6-7.3-9.3c-0.1,0.8-0.1,1.3-0.1,1.8c0,3.7,0,7.3,0,11
			C619.7,60.2,619.7,62.7,622.5,64.2z"/>
		<path d="M669.4,43.2c-3.4-3.4-7.2-3.9-11.2-2.9c-4.7,1.2-7.7,5.5-7.4,10.3c0.4,5.1,4.5,9.7,9.4,10.1c1.9,0.2,3.8,0,5.7-0.3
			c0.4,0,1-0.8,1-1.2c0.1-1.8,0-3.6,0-5.4c0-2.1-1.1-3.3-3-4.2c2.8,0,5.7,0,8.4,0c0,4.7,0,9.3,0,14c-5.2,1.1-10.6,2-16,0.7
			c-7.2-1.7-11.5-6.9-11.5-13.8c0-7,4.5-12.5,11.7-14.3c3.9-1,7.8-0.8,11.8,0c0.4,0.1,0.9,0.6,0.9,0.9
			C669.4,39.1,669.4,40.9,669.4,43.2z"/>
		<path d="M676.6,57.2c2.5,1.1,5,2.5,7.8,3.2c1.7,0.4,3.9,0.1,5.5-0.6c2.6-1.1,2.7-3.8,0.3-5.3c-1.7-1.1-3.7-1.9-5.5-2.9
			c-1.7-1-3.5-1.9-5-3.2c-3.4-3.1-2.8-8.2,1-10.7c3.7-2.4,7.7-2.3,11.8-1.6c2.7,0.5,2.7,0.5,2.7,3.3c0,1.2,0,2.3,0,3.9
			c-0.6-0.6-1-0.9-1.4-1.2c-2.3-1.9-5-2.9-7.9-1.8c-1,0.4-2,1.4-2.4,2.4c-0.5,1.3,0.5,2.3,1.6,2.9c3.1,1.6,6.2,3.1,9.2,4.9
			c3.4,2.1,4.2,5.9,2.1,9.4c-1.7,2.9-4.4,4.7-7.7,4.8c-3.1,0.2-6.2-0.3-9.3-0.7c-0.6-0.1-1.3-1-1.6-1.7
			C677.3,60.5,676.9,58.7,676.6,57.2z"/>
		<path d="M502.1,13.6c0.7,0.4,1.2,0.6,1.6,0.9c-0.4,1.3-0.9,2.5-1.1,3.7c-0.3,2.5,1.1,4,3.5,4.2c2.6,0.1,3.9-1,4-3.7
			c0.1-2.1,0-4.2,0-6.3c0-0.3,0.1-0.7,0.1-1c1.5-0.5,2,0,2,1.5c-0.1,3.7-0.9,4.7,4.5,4.5c1.6,0,3.1,0,4.7,0c2,0,2.4-0.5,2.4-2.5
			c0-4-2.3-5.3-5.8-3.5c-0.5,0.3-1.3-0.1-2.2-0.2c1.6-2.4,3.5-3.1,6.3-2.5c2.1,0.5,3.4,1.7,3.8,3.8c0.2,0.8,0.3,1.7,0.3,2.6
			c-0.1,1.5,0.7,2.1,2,2.2c0.1,0,0.1,0,0.2,0c4,0.3,4,0.2,4-3.7c0-0.7,0-1.5,0-2.3c1.4-0.4,2.3-0.3,2.1,1.4c-0.1,0.7,0,1.5,0,2.3
			c-0.1,1.7,0.8,2.3,2.3,2.4c1.2,0.1,1.7-0.4,1.7-1.6c0-1,0.1-2,0-3c-0.1-1.4,0.5-1.9,2.1-1.5c0,1.2,0,2.4,0,3.7
			c-0.1,1.6,0.8,2.3,2.3,2.4c1.3,0.1,1.8-0.4,1.8-1.7c0-2.1,0-4.3,0-6.5c0.7,0,1.3-0.1,2.1-0.1c0,2-0.1,3.9,0,5.8
			c0.1,0.8,0.5,2,1.1,2.3c1.1,0.4,2.4,0.3,3.5,0.1c0.3,0,0.5-1.1,0.5-1.7c0-3.8,0-7.5,0-11.3c0-0.8-0.6-2,1.1-2c1.6,0,1,1.3,1,2.1
			c0.1,3.7,0,7.3,0.1,11c0,0.7,0.7,1.8,1.2,1.9c1.2,0.2,2.5,0,3.7-0.2c0.2,0,0.3-1,0.3-1.6c0-3.8,0.1-7.7,0-11.5
			c0-1.5,0.5-2,2.2-1.6c0,1.7,0,3.3,0,5c0,2.7,0,5.5,0,8.2c0,3.3-0.5,3.9-3.8,3.9c-1.3,0-2.7-0.3-4.5-0.6c-1.8,1.1-4.6,1.1-6.8-0.3
			c-2.1,1.3-4.1,1.4-6.1,0c-2.1,1.3-4.1,1.4-6.2,0c-2.5,1.5-6.6,1.4-8.3,0c-4.5,1.8-9,0.8-13.7,0.8c-0.2,2.9-1.8,4.9-5.3,5.1
			c-2.5,0.2-4.9-0.3-6.1-2.7C499.7,18.9,500.4,16.3,502.1,13.6z"/>
		<path d="M607.4,17.5c1.7,0,3.4,0,5.1,0c1.4,0.1,1.9-0.6,1.9-1.9c0-2.1,0-4.2,0-6.4c0.7,0,1.3,0,2.1,0c0,2,0,3.9,0,5.8
			c0,2,0.6,2.5,3,2.5c2.1,0,2.2-0.1,2.2-2.3c0-2,0-3.9,0-6c0.7,0,1.3,0,2,0c0,2.8,0.1,5.5-0.1,8.3c0,0.6-1,1.6-1.6,1.7
			c-2,0.4-4.1,0.8-5.7-0.5c-1.3,0.3-2.4,0.7-3.4,0.7c-2.8-0.1-5.5-0.5-8.3-0.5c-2.1,0-4.2,0.5-6.4,0.6c-1.2,0-2.4-0.4-4-0.7
			c-1.4,0.9-3.3,1.1-5.3,0c-0.2-0.1-0.7-0.2-0.9-0.1c-1.7,1.2-3.5,0.8-5.4,0.3c-0.6,3.4-1.9,4.9-4.5,5.3c-2.9,0.5-5.7-0.5-6.8-2.4
			c-1.3-2.3-0.9-5.8,1.1-8.2c0.5,0.3,1.1,0.5,1.5,0.8c-0.4,1.4-1,2.5-1.2,3.8c-0.4,2.3,1.1,3.9,3.4,4.1c2.6,0.2,4.1-1,4.1-3.5
			c0-2.4,0-4.9,0-7.4c0.7-0.1,1.2-0.1,2.1-0.2c0,1.4,0,2.6,0,3.9c0,1.6,0.8,2.3,2.3,2.4c1.2,0.1,1.9-0.4,1.8-1.7c0-1.4,0-2.9,0-4.4
			c0.8,0,1.3,0,2.1,0c0,1.4,0,2.7,0,4c0,1.6,1,2,2.4,2.1c1.5,0.1,1.7-0.8,1.7-2c0-2.1,0-4.1,0-6.3c0.8,0,1.4,0,2.1,0
			c0,1.9,0,3.8,0,5.6c0,2.2,0.5,2.6,2.7,2.7c1.7,0,3.3,0,5.1,0c-0.1-2.2-1.2-3.4-2.5-4.4c-1-0.7-1.4-1.5-1-2.5
			c0.3-0.6,1.1-1.3,1.7-1.4c1.8-0.3,3.6-0.6,5.3-0.4c2.7,0.3,4.1,2.7,3.1,5.2C609,15.2,608.1,16.2,607.4,17.5z M605.1,16.2
			c2.2-1.7,2.9-3.3,2-4.5c-0.9-1.3-3.5-1.4-5.3-0.3c0.6,0.7,1.4,1.4,1.9,2.2C604.2,14.4,604.6,15.3,605.1,16.2z"/>
		<path d="M464.6,18.9c-1.7,1.1-5.3,1-6.9-0.3c-1.5,0.3-2.8,0.8-4,0.8c-3,0.1-5.9,0.1-8.9,0c-2.2,0-2.9-0.9-2.9-3c0-4.7,0-9.4,0-14
			c1.6-0.5,2.2-0.1,2.1,1.5c-0.1,3.9,0,7.8-0.1,11.7c0,1.4,0.5,2,1.9,1.9c2.5-0.1,5,0,7.5,0c1.5,0,2.2-0.7,2.2-2.2
			c0.1-4.1-2.2-5.6-5.9-3.7c-0.5,0.2-1.3-0.1-2.2-0.3c1.8-2.7,4.1-2.8,6.4-2.4c2.1,0.4,3.4,1.7,3.8,3.8c0.2,0.9,0.3,1.7,0.3,2.6
			c-0.1,1.5,0.7,2.1,2.1,2.2c0.5,0,1,0,1.6,0c1.4,0.1,2-0.5,2-1.9c-0.1-2.1,0-4.2,0-6.4c0.7,0,1.3-0.1,2.1-0.1c0,2-0.1,4,0.1,5.9
			c0.1,0.8,0.6,2,1.2,2.1c1.2,0.3,2.5,0.1,3.7-0.1c0.2,0,0.4-1,0.4-1.6c0-3.9,0-7.8,0-11.7c0-0.8-0.2-1.7,1.1-1.7c1.3,0,1,0.9,1,1.6
			c0,4.1,0,8.2,0,12.4c0,2.5-0.7,3.3-3.4,3.3C468.2,19.4,466.7,19.2,464.6,18.9z"/>
		<path d="M644.9,99.6c-3,0.2-3,0.2-3.7-2.4c-1.5-5.3-3-10.6-4.5-16c0.9,0,1.6,0,2.6,0c1.3,4.7,2.7,9.6,4,14.4c0.1,0,0.2,0,0.3,0.1
			c1.4-4.8,2.9-9.6,4.3-14.3c2.5-0.5,2.5-0.5,3.2,1.9c1.2,4.1,2.4,8.2,4,12.4c0.6-2.1,1.2-4.2,1.8-6.3c0.6-2.1,1.3-4.1,1.7-6.2
			c0.3-1.8,1.1-2.4,3-1.8c-1.7,6-3.4,12.1-5.1,18.1c-2.9,0.3-2.9,0.3-3.6-2.3c-1.2-3.9-2.3-7.8-3.8-11.7
			C647.7,90.2,646.3,94.9,644.9,99.6z"/>
		<path d="M598.6,36.4c4.3,0,8.2,0,12.1,0c0,0.1,0,0.3-0.1,0.3c-2.7,0.9-3.1,3-3.1,5.5c0.1,5.3,0,10.6,0,15.8c0,2.4-0.3,5,2.8,6.1
			c-3.6,0-7.2,0-11.2,0c0.6-0.4,1-0.6,1.2-0.9c0.6-0.8,1.6-1.7,1.6-2.6c0.1-6.9,0.1-13.8,0.1-20.7C602.1,37.9,600.4,37.5,598.6,36.4
			z"/>
		<path d="M676.1,9.2c0.8,0,1.4,0,2.1,0c0,1.9,0,3.8,0,5.6c0,2.2,0.6,2.7,3.1,2.7c2.2,0,2.2-0.1,2.2-2.5c0-1.9,0-3.8,0-5.8
			c0.8,0,1.3,0,2,0c0,2.8,0.1,5.5-0.1,8.3c0,0.6-1,1.6-1.6,1.7c-2,0.4-4.1,0.8-5.9-0.6c-2.7,1.3-5.2,1.4-7.8,0
			c-2.5,1.4-5.2,1.1-7.8,0.5c-0.7-0.2-1.5-1.6-1.6-2.5c-0.2-4.4-0.1-8.8,0-13.2c0-0.4,0.7-0.8,1.1-1.1c0.4,0.4,1.1,0.9,1.1,1.3
			c0.1,4,0.1,8,0,12c0,1.5,0.5,2.2,2,2c0.4,0,0.8,0,1.2,0c1.6,0.2,2.2-0.5,2.2-2.1c-0.1-2,0-4,0-6.2c0.7,0,1.2-0.1,2.1-0.2
			c0,2-0.1,3.9,0,5.7c0.1,0.8,0.5,2.1,1,2.3c1.3,0.3,2.7,0.2,4,0.1c0.2,0,0.4-1,0.4-1.5C676.1,13.5,676.1,11.5,676.1,9.2z"/>
		<path d="M408.6,85.4c-0.7,0.4-1.3,0.8-2,1.2c-1.3-1.8-2.9-3.2-5.1-3.2c-1.6,0-3.4,0.3-4.8,1c-2.9,1.5-4,5.2-2.9,8.5
			c1.1,3.1,4.1,5,7.7,4.7c3.1-0.2,5.2-2,5.6-4.8c-2.1,0-4.3,0-6.5,0c0-0.7,0-1.3,0-2.1c3,0,6,0,9,0c0.8,3.9-1.7,7.8-5.6,8.9
			c-5.3,1.6-10.5-0.8-12.4-5.6c-1.8-4.7,0.2-10,4.6-12.2C400.6,79.6,406,81.1,408.6,85.4z"/>
		<path d="M625.8,92.8c-2.1,0-4.3,0-6.5,0c0-0.8,0-1.4,0-2.1c3,0,5.9,0,8.8,0c1,4.4-2,8.4-6.9,9.3c-5.2,0.9-10.4-2.3-11.4-7.1
			c-1.2-5.5,1.8-10.4,7.1-11.7c4.1-1,8.1,0.6,10.3,4.2c-0.3,0.2-0.6,0.5-0.9,0.7c-0.3,0.2-0.6,0.3-0.9,0.5
			c-2.6-3.3-6.4-4.3-10.1-2.1c-2.9,1.7-4,5.3-2.9,8.5c1.1,3.1,4.1,5,7.7,4.7C623.2,97.4,625.3,95.6,625.8,92.8z"/>
		<path d="M388.8,90.5c0,5.4-4.1,9.5-9.6,9.5c-5.4,0-9.6-4.2-9.6-9.6c0-5.4,4.1-9.6,9.6-9.6C384.8,80.9,388.8,84.9,388.8,90.5z
			 M386.4,90.5c0-4.1-3-7.2-7-7.2c-4,0-7.2,3.1-7.2,7.1c0,4,3.2,7.2,7.1,7.3C383.2,97.7,386.4,94.5,386.4,90.5z"/>
		<path d="M567.2,99.7c0-6.2,0-12.2,0-18.6c3.4,0.2,6.8,0,10.1,0.7c4,0.9,6.5,5.7,5.8,10.1c-0.8,4.8-4.1,7.8-8.7,7.9
			C572.1,99.7,569.7,99.7,567.2,99.7z M569.7,97.4c1.6,0,3,0,4.3,0c3.2-0.1,5.4-1.5,6.3-4.3c1-2.9,0.2-6.2-2-8.1
			c-2.6-2.2-5.7-1.1-8.7-1.3C569.7,88.3,569.7,92.7,569.7,97.4z"/>
		<path d="M506.4,94.6c0.4-1.3,0.7-2.2,1-3.2c0.9,0.5,2.5,0.4,1.8,2c-0.8,2.1-1.4,4.1,1.5,5.4c-1,0.6-1.6,1-2.5,1.5
			c-0.4-0.7-0.9-1.5-1.3-2.1c-4.1,2.8-9,2.6-11.2-0.6c-1.7-2.5-0.7-5.6,2.3-8.2c-1.5-3.6-1.3-6.7,2.7-8.2c3-1.1,6.1,0.3,7.4,3.5
			c-0.6,0.3-1.2,0.7-1.8,1.1c-0.4-0.5-0.7-1-1.2-1.5c-1.2-1.2-3.2-1.4-4.4-0.4c-1.3,1-1.4,2.7-0.2,4.2
			C502.4,90.2,504.3,92.2,506.4,94.6z M500,91.2c-1.7,0.6-2.6,1.8-2.4,3.3c0.1,1,0.9,2.3,1.7,2.7c1.8,0.9,3.8,0.7,5.6-0.8
			C503.2,94.6,501.6,92.9,500,91.2z"/>
		<path d="M606.5,99.6c-1.5,0.5-2.2-0.2-2.9-1.3c-2.4-3.6-4.9-7.1-7.3-10.6c-0.3-0.4-0.6-0.8-1.1-1.5c0,4.7,0,9,0,13.4
			c-0.8,0-1.5,0-2.3,0c0-6,0-12.1,0-18.2c1.2-0.5,1.9-0.1,2.6,1c2.4,3.6,4.9,7.2,7.4,10.7c0.3,0.5,0.7,0.9,1.3,1.8
			c0-4.8,0-9.2,0-13.6c0.9,0,1.6,0,2.4,0C606.5,87.4,606.5,93.5,606.5,99.6z"/>
		<path d="M534,99.6c0-6.1,0-12.1,0-18.2c3,0,6-0.3,9,0.1c2.3,0.3,3.6,2.1,4.1,4.5c0.4,2.3-0.5,4.1-2.2,5.5
			c-0.4,0.3-0.9,0.6-1.4,0.9c1.4,2.3,2.7,4.7,4.1,7.1c-1.7,0.6-2.9,0.3-3.6-1.4c-0.3-0.8-0.8-1.5-1.3-2.3c-2-3.4-2-3.4-6.1-3
			c0,2.2,0,4.4,0,6.8C535.6,99.6,534.9,99.6,534,99.6z M536.5,90.3c1.8,0,3.4,0,5.1,0c1.6-0.1,2.9-1.3,3.1-3
			c0.2-1.6-0.8-3.4-2.3-3.6c-1.9-0.3-3.9-0.2-5.8-0.3C536.5,85.9,536.5,88,536.5,90.3z"/>
		<path d="M564.9,99.5c-2.1,0.7-3-0.2-3.3-2c-0.3-1.5-1.1-2.3-2.8-2c-0.4,0.1-0.9,0-1.4,0c-1.5,0-3.3-0.5-4.4,0.2
			c-1.1,0.6-1.4,2.5-2.1,3.9c-0.7,0-1.5,0-2.5,0c1.8-4.8,3.5-9.5,5.3-14.2c0.3-0.9,0.7-1.7,1-2.6c0.3-1,0.7-1.7,2-1.7
			c1.3,0,1.7,0.5,2.1,1.6c1.9,5.2,3.8,10.3,5.7,15.5C564.6,98.6,564.7,99.1,564.9,99.5z M559.9,93.2c-1.1-2.9-2.1-5.7-3.1-8.4
			c-0.1,0-0.3,0-0.4,0c-1,2.7-2,5.4-3,8.3c0.6,0.1,1,0.1,1.4,0.1C556.5,93.2,558.1,93.2,559.9,93.2z"/>
		<path d="M470.8,85.4c-0.6,0.4-1.3,0.8-1.9,1.1c-3.3-4.3-8.6-4-11.4-1c-2.7,2.9-2.5,7.8,0.6,10.5c3.2,2.7,7.6,2.1,10.7-1.6
			c0.6,0.3,1.3,0.7,2,1.1c-1.9,3.7-6.1,5.3-10.5,4.3c-4.2-1-7-4.6-7.1-9.2c-0.1-4.3,2.7-8.2,6.7-9.3C464.4,80,468.6,81.6,470.8,85.4
			z"/>
		<path d="M485.7,84.8c-0.8,0.5-1.4,0.9-2.1,1.3c-1.1-2-2.7-3.1-5.1-2.8c-1.3,0.2-2.3,0.8-2.5,2.3c-0.2,1.4,0.5,2.2,1.7,2.7
			c1.6,0.6,3.1,1.2,4.7,1.8c2.6,1,3.9,2.8,3.7,5.1c-0.2,2.5-1.7,4.1-4.6,4.8c-3.9,0.9-7.5-0.8-8.8-4.4c0.6-0.3,1.1-0.7,1.9-1.2
			c1.1,2.4,3,3.5,5.5,3.3c0.5,0,1,0,1.3-0.3c0.8-0.7,1.7-1.4,2-2.3c0.4-1.1-0.5-2.1-1.6-2.5c-2-0.8-4.1-1.4-6-2.4
			c-3.1-1.5-3.5-5.6-0.8-7.8c2.2-1.9,6.1-1.9,8.4,0C484.3,83,484.9,83.9,485.7,84.8z"/>
		<path d="M430.7,84.9c-0.7,0.4-1.3,0.8-2,1.2c-1-1.9-2.5-3-4.7-2.8c-1.4,0.2-2.5,0.7-2.8,2.2c-0.3,1.5,0.5,2.4,1.8,2.9
			c1.4,0.6,2.8,1,4.2,1.6c3,1.2,4.2,2.8,3.9,5.4c-0.3,2.5-1.9,4.1-4.9,4.7c-3.7,0.7-6.9-1-8.5-4.4c0.6-0.4,1.2-0.8,2-1.2
			c1.2,2.6,3.3,3.7,5.9,3.2c1-0.2,2.1-0.8,2.7-1.6c0.9-1.1,0.2-2.8-1.2-3.4c-1.4-0.6-2.8-1.1-4.2-1.6c-3.8-1.4-5.1-3.6-4.1-6.6
			c0.9-2.8,4.4-4.2,7.7-3.2C428.4,81.8,429.5,82.7,430.7,84.9z"/>
		<path d="M483.8,24.5c0-0.7,0-1.3,0-1.7c1.8-1,5.5,1.2,5.5-3.1c-1.5-0.1-2.9-0.2-4.3-0.4c-1.8-0.3-2.8-1.5-3-3.3
			c-0.1-1.1-0.1-2.2,0-3.3c0.4-2.6,2.3-4,5.3-3.9c2.5,0.1,4,1.6,4.1,4.2c0.1,2.5,0.1,5.1,0,7.6c-0.1,2.5-1.5,3.7-4,3.8
			C486.3,24.5,485.1,24.5,483.8,24.5z M489.3,17.5c0-1.6,0.1-3,0-4.4c-0.1-1.3-0.8-2.3-2.3-2.4c-1.4-0.1-2.4,0.7-2.7,2
			c-0.8,3.3,0.1,5,3.3,4.8C488.1,17.5,488.6,17.5,489.3,17.5z"/>
		<path d="M629,24.4c0-0.7,0-1.2,0-1.7c1.7-0.9,3.9,0.7,5.2-1.3c0.3-0.5,0.3-1.2,0.4-1.8c-1.6-0.1-3-0.2-4.3-0.4
			c-1.9-0.3-2.9-1.5-3.1-3.3c-0.1-1.1-0.1-2.3,0-3.5c0.4-2.6,2.4-3.9,5.4-3.8c2.4,0.1,3.9,1.6,4,4.2c0.1,2.6,0.1,5.2,0,7.8
			c-0.1,2.3-1.4,3.6-3.8,3.7C631.7,24.5,630.4,24.4,629,24.4z M634.5,17.5c0-1.6,0.1-3,0-4.5c-0.1-1.2-0.8-2.2-2.2-2.3
			c-1.4-0.1-2.4,0.6-2.8,1.9c-1,3.7,0.3,5.2,3.3,4.9C633.4,17.5,633.9,17.5,634.5,17.5z"/>
		<path d="M386.7,18.1c-3.3,1.2-1.6,4.1-2.3,6.2c-0.6,0-1.1,0-1.9,0c0-1.7-0.2-3.5,0.1-5.2c0.1-0.8,1-1.7,1.7-2.2
			c1-0.7,1.5-1.4,1.4-2.7c-0.1-4,1.6-5.7,5.3-5.6c2.2,0.1,3.7,1.1,4.1,3.3c0.3,1.3,0.3,2.8,0,4.1C394.5,19.9,390.3,20.8,386.7,18.1z
			 M388,14.2c0,2.4,0.8,3.5,2.7,3.4c1.8,0,2.7-1.2,2.7-3.5c0-2.2-1.1-3.5-2.7-3.5C388.9,10.6,388,11.9,388,14.2z"/>
		<path d="M365.8,18.1c-3.4,1.2-1.6,4.1-2.3,6.2c-0.6,0-1.1,0-1.9,0c0-1.7-0.2-3.5,0.1-5.2c0.2-0.9,1.1-1.7,1.9-2.3
			c0.9-0.7,1.4-1.4,1.3-2.6c-0.1-4,1.5-5.7,5.1-5.6c2.6,0,4.2,1.5,4.5,4.1c0,0.3,0,0.7,0,1c0.1,2.1-0.2,4.2-2.3,5.2
			C370,20.1,367.8,19.9,365.8,18.1z M367.1,14.2c0,2.4,0.9,3.4,2.7,3.4c1.8,0,2.7-1.2,2.6-3.5c0-2.2-1.1-3.5-2.8-3.5
			C368,10.7,367.1,11.9,367.1,14.2z"/>
		<path d="M445.2,83.6c-1.8,0-3.5,0-5.4,0c0,5.4,0,10.7,0,16c-0.9,0-1.5,0-2.4,0c0-5.2,0-10.5,0-15.9c-1.8,0-3.5,0-5.3,0
			c0-0.8-0.1-1.5-0.1-2.3c4.4,0,8.8,0,13.2,0C445.2,82,445.2,82.7,445.2,83.6z"/>
		<path d="M531.5,83.6c-1.7,0-3.4,0-5.3,0c0,5.4,0,10.6,0,16c-0.9,0-1.6,0-2.5,0c0-5.2,0-10.5,0-15.9c-1.8,0-3.5,0-5.3,0
			c0-0.8-0.1-1.5-0.1-2.3c4.5,0,8.8,0,13.3,0C531.5,82.1,531.5,82.7,531.5,83.6z"/>
		<path d="M691.4,97.4c2.8,0,5.3,0,8,0c0,0.8,0,1.5,0,2.2c-3.4,0-6.8,0-10.3,0c0-6.1,0-12.2,0-18.3c0.8,0,1.4,0,2.3,0
			C691.4,86.6,691.4,91.8,691.4,97.4z"/>
		<path d="M671.2,97.4c2.8,0,5.4,0,8,0c0,0.8,0,1.4,0,2.2c-3.4,0-6.8,0-10.3,0c0-6.1,0-12.1,0-18.3c0.7,0,1.4,0,2.3,0
			C671.2,86.6,671.2,91.8,671.2,97.4z"/>
		<path d="M361.5,97.4c2.8,0,5.3,0,7.9,0c0,0.8,0,1.4,0,2.2c-3.3,0-6.7,0-10.3,0c0-6,0-12,0-18.2c0.7,0,1.4,0,2.3,0
			C361.5,86.6,361.5,91.8,361.5,97.4z"/>
		<path d="M647.3,13.8c1.5,0.3,1.9,0.9,1.2,2.3c-1.2,2.4-0.9,4.5,0.6,5.6c1.4,1,2.9,1,4.5,0.4c1.5-0.6,1.8-1.9,1.8-3.3
			c0.1-2.4,0-4.8,0-7.3c1.6-0.5,2.2-0.1,2.2,1.4c-0.1,2.5,0.1,5-0.3,7.5c-0.4,3-2.7,4.3-6.5,4c-3-0.2-5-2-5.2-4.9
			C645.5,17.4,645.9,15.4,647.3,13.8z"/>
		<path d="M422.3,13.2c0-2.6,1.5-4.4,4.6-4.4c2.5,0,4,0.9,4.7,2.8c0.9,2.6,0.3,6.1-1.4,7.2c-1.7,1.2-3.7,1.2-5.5,0.4
			C422.7,18.2,422.3,16.2,422.3,13.2z M429.9,14.3c0-2.2-0.9-3.6-2.6-3.6c-1.7-0.1-2.8,1.2-2.8,3.4c-0.1,2.2,0.9,3.5,2.6,3.6
			C428.9,17.7,429.8,16.5,429.9,14.3z"/>
		<path d="M588.7,99.6c-0.9,0-1.7,0-2.5,0c0-6.2,0-12.4,0-18.6c0.9,0,1.7,0,2.5,0C588.7,87.2,588.7,93.4,588.7,99.6z"/>
		<path d="M450.1,99.7c-0.9,0-1.6,0-2.5,0c0-6.2,0-12.4,0-18.7c0.8,0,1.6,0,2.5,0C450.1,87.2,450.1,93.3,450.1,99.7z"/>
		<path d="M415.2,99.7c-0.9,0-1.6,0-2.5,0c0-6.2,0-12.4,0-18.6c0.8,0,1.6,0,2.5,0C415.2,87.2,415.2,93.3,415.2,99.7z"/>
		<path d="M405.6,10.6c0-0.7,0-1.2,0-1.9c1.7,0,3.3-0.1,4.9,0c1.6,0.2,2.9,1.1,3.1,2.8c0.2,1.7,0.1,3.3,0.1,5
			c-0.1,1.8-1.2,2.7-2.9,2.8c-1.8,0.1-3.6,0.1-5.4,0c-0.4,0-0.7-0.6-1.1-1c0.4-0.3,0.7-0.9,1.1-0.9c1.2-0.1,2.4,0,3.7-0.1
			c2.1,0,2.5-0.5,2.5-2.6c0-0.4,0-0.8,0-1.2c0-2.1-0.7-2.8-2.8-3C407.8,10.6,406.8,10.6,405.6,10.6z"/>
		<path d="M476.8,2.4c1.5-0.5,2,0.1,2,1.6c-0.1,4.6-0.1,9.3,0,13.9c0,1.4-0.4,2-2,1.5C476.8,13.7,476.8,8.1,476.8,2.4z"/>
		<path d="M696,10.7c0-2.4,0-4.7,0-7.1c0-0.8,0.1-1.4,1.1-1.4c1,0,1.1,0.6,1.1,1.4c0,4.9,0,9.7,0,14.6c0,0.8-0.1,1.4-1.1,1.4
			c-1,0-1.1-0.6-1.1-1.4C696,15.6,696,13.2,696,10.7z"/>
		<path d="M690.4,9.2c0.8,0,1.3,0,2.1,0c0,1.5,0,3,0,4.4c0,2.2,0,4.4,0,6.6c0,3.2-1.5,4.5-4.8,4.1c0-0.5,0-1.1,0-1.6
			c2.7-0.8,2.7-0.8,2.7-3.7C690.4,15.8,690.4,12.6,690.4,9.2z"/>
		<path d="M433.5,24.3c-0.3-1.1-0.4-1.9,1.1-2c1.3-0.1,1.6-1.1,1.6-2.3c0-3,0-5.9,0-8.9c0-0.6,0-1.3,0-2c0.7,0,1.3,0,2.1,0
			c0,4.1,0.1,8.2-0.1,12.3C438.1,23.7,436.4,24.6,433.5,24.3z"/>
		<path d="M665.5,98.7c-0.7,0.4-1.4,1.2-2,1.2c-0.6,0-1.5-0.9-1.6-1.6c-0.2-1,0.6-1.9,1.6-1.7c0.7,0.1,1.3,0.8,2,1.2
			C665.5,98.1,665.5,98.4,665.5,98.7z"/>
		<path d="M683.3,100.3c-0.4-0.7-1.1-1.3-1.2-2.1c-0.1-1.1,0.7-1.8,1.8-1.5c0.6,0.2,1.5,1.1,1.5,1.6c0,0.7-0.8,1.4-1.3,2
			C683.8,100.3,683.5,100.3,683.3,100.3z"/>
		<path d="M380,19.4c-0.8,0-1.4,0-2.2,0c0-0.9,0-1.6,0-2.5c0.7,0,1.4,0,2.2,0C380,17.6,380,18.4,380,19.4z"/>
		<path d="M401,16.9c0,0.8,0,1.6,0,2.5c-0.7,0-1.4,0-2.3,0c0-0.8,0-1.6,0-2.5C399.4,16.9,400.1,16.9,401,16.9z"/>
		<path d="M605.9,6.7c-1.5-0.1-2.7,0.6-2.7-1.2c0-1,0.4-1.3,1.3-1.2C606.4,4.4,605.1,5.7,605.9,6.7z"/>
		<path d="M461.9,6.9c0-1.1,0-1.8,0-2.8c0.8,0.2,1.6,0.2,2.1,0.6c0.2,0.2,0.3,1.2,0,1.4C463.5,6.5,462.8,6.6,461.9,6.9z"/>
		<path d="M542.2,6.6c-1-0.1-2.2,0.6-2.2-1.2c0-1.7,1.1-1.1,2.2-1.1C542.2,5,542.2,5.7,542.2,6.6z"/>
		<path d="M683.8,24c-0.9,0-1.5,0-2.4,0c0.1-0.7,0-1.5,0.4-2c0.1-0.3,1.4-0.3,1.5-0.1C683.6,22.4,683.6,23.2,683.8,24z"/>
		<path d="M671.9,24.1c-1.1-0.1-2.5,0.6-2.3-1.2c0-0.4,0.8-1.1,1.2-1.1C672.5,21.7,671.7,23,671.9,24.1z"/>
		<path d="M684.5,24.1c0.2-1-0.7-2.4,1.1-2.3c0.4,0,1.2,0.7,1.2,1.1C687,24.7,685.6,24,684.5,24.1z"/>
		<path d="M426.6,6.5c-0.7,0-1.3,0-2,0c0-0.7,0-1.4,0-2.2c0.6,0,1.2-0.1,2-0.1C426.6,5,426.6,5.7,426.6,6.5z"/>
		<path d="M451.2,24c0.2-0.9,0.2-1.6,0.6-2.2c0.1-0.2,1.3-0.2,1.4,0c0.3,0.6,0.4,1.3,0.6,2.1C452.9,24,452.3,24,451.2,24z"/>
		<path d="M407.5,4.3c0.4,0,0.6-0.1,0.8-0.1c0.3,0,0.6,0,1.1,0c0,0.7,0.1,1.4,0.1,2.2c-0.8,0-1.4,0-2,0
			C407.5,5.8,407.5,5.1,407.5,4.3z"/>
		<path d="M429.7,4.4c0,0.8,0,1.4,0,2.2c-0.7,0-1.3,0-1.9,0C427.4,4.2,427.4,4.2,429.7,4.4z"/>
		<path d="M467,6.6c-0.6,0-1.2,0-1.9,0c0-0.7,0-1.4,0-2.2c0.6,0,1.2,0,1.9,0C467,5.1,467,5.8,467,6.6z"/>
		<path d="M538.6,3.8c0-1,0-1.6,0-2.4c0.8,0.1,1.5,0,2.1,0.3c0.3,0.2,0.3,1.4,0.1,1.5C540.3,3.6,539.5,3.6,538.6,3.8z"/>
		<path d="M676.2,24c0-0.8,0-1.4,0-2.2c0.6,0,1.2-0.1,2-0.1c0,0.8,0,1.5,0,2.3C677.5,24,676.9,24,676.2,24z"/>
		<path d="M537.2,6.7c0-0.9,0-1.5,0-2.3c0.7,0,1.3,0,2,0c0,0.7,0,1.4,0,2.2C538.6,6.6,538,6.6,537.2,6.7z"/>
		<path d="M614.3,6.5c0-0.8,0-1.4,0-2.2c0.7,0,1.3-0.1,2-0.1c0,0.8,0,1.5,0,2.3C615.6,6.5,614.9,6.5,614.3,6.5z"/>
		<path d="M668.7,21.8c0,0.8,0,1.4,0,2.2c-0.6,0-1.2,0.1-1.9,0.1c0-0.8,0-1.5,0-2.3C667.3,21.8,667.9,21.8,668.7,21.8z"/>
		<path d="M625,24c-1,0-1.6,0-2.4,0c0.1-0.8,0.1-1.5,0.4-2.1c0.1-0.2,1.3-0.3,1.4-0.1C624.8,22.4,624.8,23.2,625,24z"/>
		<path d="M619.6,21.8c0.7,0,1.2-0.1,1.9-0.1c0,0.8,0,1.5,0,2.3c-0.7,0-1.3,0-1.9,0C619.6,23.3,619.6,22.7,619.6,21.8z"/>
		<path d="M651.4,10.6c0-0.8,0-1.4,0-2.1c0.7,0,1.3,0,2,0c0,0.6,0,1.2,0,2C652.8,10.5,652.2,10.6,651.4,10.6z"/>
		<path d="M508.3,10.5c-0.8,0-1.4,0-2.1,0c0-0.7,0-1.3,0-2c0.6,0,1.2,0,2,0C508.2,9.1,508.3,9.7,508.3,10.5z"/>
	</g>
</g>
</svg>
